<mxfile host="Electron" modified="2023-11-26T15:24:27.508Z" agent="Mozilla/5.0 (Windows NT 10.0; Win64; x64) AppleWebKit/537.36 (KHTML, like Gecko) draw.io/22.1.2 Chrome/114.0.5735.289 Electron/25.9.4 Safari/537.36" etag="5iJgyJds48hDSMuMAPdE" version="22.1.2" type="device">
  <diagram name="Page-1" id="oywVNr-vS_trSHZJGrZS">
    <mxGraphModel dx="1098" dy="820" grid="1" gridSize="10" guides="1" tooltips="1" connect="1" arrows="1" fold="1" page="1" pageScale="1" pageWidth="850" pageHeight="1100" math="0" shadow="0">
      <root>
        <mxCell id="0" />
        <mxCell id="1" parent="0" />
        <mxCell id="tPJ5kPAeRhdhdYEuvLA_-2" value="" style="html=1;aspect=fixed;strokeColor=#000000;strokeWidth=11;fillColor=#eeeeee;labelBackgroundColor=none;labelBorderColor=none;whiteSpace=wrap;fontColor=#000000;" vertex="1" parent="1">
          <mxGeometry x="70" y="70" width="720" height="720" as="geometry" />
        </mxCell>
        <mxCell id="tPJ5kPAeRhdhdYEuvLA_-3" value="&lt;font style=&quot;font-size: 20px;&quot;&gt;&lt;b&gt;User&lt;/b&gt;&lt;/font&gt;" style="rounded=0;html=1;strokeColor=#36393d;strokeWidth=1;fillColor=#eeeeee;labelBackgroundColor=none;labelBorderColor=none;whiteSpace=wrap;fontColor=#000000;" vertex="1" parent="1">
          <mxGeometry x="150" y="380" width="120" height="60" as="geometry" />
        </mxCell>
        <mxCell id="tPJ5kPAeRhdhdYEuvLA_-4" value="&lt;font style=&quot;font-size: 20px;&quot;&gt;&lt;b&gt;Product&lt;/b&gt;&lt;/font&gt;" style="rounded=0;html=1;strokeColor=#36393d;strokeWidth=1;fillColor=#eeeeee;labelBackgroundColor=none;labelBorderColor=none;whiteSpace=wrap;fontColor=#000000;" vertex="1" parent="1">
          <mxGeometry x="590" y="380" width="120" height="60" as="geometry" />
        </mxCell>
        <mxCell id="tPJ5kPAeRhdhdYEuvLA_-8" value="" style="endArrow=none;html=1;rounded=0;entryX=0;entryY=0.5;entryDx=0;entryDy=0;exitX=1;exitY=0.5;exitDx=0;exitDy=0;strokeColor=#000000;fontColor=#000000;strokeWidth=1;fillColor=#f5f5f5;gradientColor=#b3b3b3;labelBackgroundColor=none;labelBorderColor=none;" edge="1" parent="1" source="tPJ5kPAeRhdhdYEuvLA_-42" target="tPJ5kPAeRhdhdYEuvLA_-4">
          <mxGeometry width="50" height="50" relative="1" as="geometry">
            <mxPoint x="470" y="410" as="sourcePoint" />
            <mxPoint x="450" y="400" as="targetPoint" />
          </mxGeometry>
        </mxCell>
        <mxCell id="tPJ5kPAeRhdhdYEuvLA_-9" value="&lt;font style=&quot;font-size: 16px;&quot;&gt;&lt;b&gt;1&lt;/b&gt;&lt;/font&gt;" style="text;strokeColor=none;align=center;fillColor=#eeeeee;verticalAlign=middle;rounded=0;strokeWidth=1;labelBackgroundColor=none;labelBorderColor=none;html=1;whiteSpace=wrap;fontColor=#000000;" vertex="1" parent="1">
          <mxGeometry x="300" y="370" width="60" height="30" as="geometry" />
        </mxCell>
        <mxCell id="tPJ5kPAeRhdhdYEuvLA_-10" value="&lt;font style=&quot;font-size: 16px;&quot;&gt;&lt;b&gt;M&lt;/b&gt;&lt;/font&gt;" style="text;strokeColor=none;align=center;fillColor=#eeeeee;html=1;verticalAlign=middle;rounded=0;strokeWidth=1;labelBackgroundColor=none;labelBorderColor=none;whiteSpace=wrap;fontColor=#000000;" vertex="1" parent="1">
          <mxGeometry x="500" y="370" width="60" height="30" as="geometry" />
        </mxCell>
        <mxCell id="tPJ5kPAeRhdhdYEuvLA_-12" value="&lt;u&gt;userID&lt;/u&gt;" style="ellipse;html=1;strokeColor=#36393d;strokeWidth=1;fillColor=#eeeeee;labelBackgroundColor=none;labelBorderColor=none;whiteSpace=wrap;fontColor=#000000;" vertex="1" parent="1">
          <mxGeometry x="220" y="280" width="90" height="40" as="geometry" />
        </mxCell>
        <mxCell id="tPJ5kPAeRhdhdYEuvLA_-13" value="" style="shape=link;html=1;rounded=0;exitX=1;exitY=0.5;exitDx=0;exitDy=0;entryX=0;entryY=0.5;entryDx=0;entryDy=0;strokeColor=#000000;fontColor=#000000;strokeWidth=1;fillColor=#f5f5f5;gradientColor=#b3b3b3;labelBackgroundColor=none;labelBorderColor=none;" edge="1" parent="1" source="tPJ5kPAeRhdhdYEuvLA_-3" target="tPJ5kPAeRhdhdYEuvLA_-42">
          <mxGeometry width="100" relative="1" as="geometry">
            <mxPoint x="370" y="400" as="sourcePoint" />
            <mxPoint x="390" y="410" as="targetPoint" />
          </mxGeometry>
        </mxCell>
        <mxCell id="tPJ5kPAeRhdhdYEuvLA_-18" value="" style="endArrow=none;html=1;rounded=0;entryX=0.5;entryY=1;entryDx=0;entryDy=0;exitX=0.75;exitY=0;exitDx=0;exitDy=0;strokeColor=#000000;fontColor=#000000;strokeWidth=1;fillColor=#f5f5f5;gradientColor=#b3b3b3;labelBackgroundColor=none;labelBorderColor=none;" edge="1" parent="1" source="tPJ5kPAeRhdhdYEuvLA_-3" target="tPJ5kPAeRhdhdYEuvLA_-12">
          <mxGeometry width="50" height="50" relative="1" as="geometry">
            <mxPoint x="400" y="420" as="sourcePoint" />
            <mxPoint x="450" y="370" as="targetPoint" />
          </mxGeometry>
        </mxCell>
        <mxCell id="tPJ5kPAeRhdhdYEuvLA_-20" value="userName" style="ellipse;html=1;strokeColor=#36393d;strokeWidth=1;fillColor=#eeeeee;labelBackgroundColor=none;labelBorderColor=none;whiteSpace=wrap;fontColor=#000000;" vertex="1" parent="1">
          <mxGeometry x="90" y="280" width="90" height="40" as="geometry" />
        </mxCell>
        <mxCell id="tPJ5kPAeRhdhdYEuvLA_-21" value="" style="endArrow=none;html=1;rounded=0;entryX=0.5;entryY=1;entryDx=0;entryDy=0;exitX=0.25;exitY=0;exitDx=0;exitDy=0;strokeColor=#000000;fontColor=#000000;strokeWidth=1;fillColor=#f5f5f5;gradientColor=#b3b3b3;labelBackgroundColor=none;labelBorderColor=none;" edge="1" parent="1" source="tPJ5kPAeRhdhdYEuvLA_-3" target="tPJ5kPAeRhdhdYEuvLA_-20">
          <mxGeometry width="50" height="50" relative="1" as="geometry">
            <mxPoint x="400" y="420" as="sourcePoint" />
            <mxPoint x="450" y="370" as="targetPoint" />
          </mxGeometry>
        </mxCell>
        <mxCell id="tPJ5kPAeRhdhdYEuvLA_-22" value="userEmail" style="ellipse;html=1;strokeColor=#36393d;strokeWidth=1;fillColor=#eeeeee;labelBackgroundColor=none;labelBorderColor=none;whiteSpace=wrap;fontColor=#000000;" vertex="1" parent="1">
          <mxGeometry x="90" y="490" width="90" height="40" as="geometry" />
        </mxCell>
        <mxCell id="tPJ5kPAeRhdhdYEuvLA_-24" value="userPassword" style="ellipse;html=1;strokeColor=#36393d;strokeWidth=1;fillColor=#eeeeee;labelBackgroundColor=none;labelBorderColor=none;whiteSpace=wrap;fontColor=#000000;" vertex="1" parent="1">
          <mxGeometry x="220" y="490" width="90" height="40" as="geometry" />
        </mxCell>
        <mxCell id="tPJ5kPAeRhdhdYEuvLA_-25" value="userAge" style="ellipse;html=1;strokeColor=#36393d;strokeWidth=1;fillColor=#eeeeee;labelBackgroundColor=none;labelBorderColor=none;whiteSpace=wrap;fontColor=#000000;" vertex="1" parent="1">
          <mxGeometry x="150" y="560" width="90" height="40" as="geometry" />
        </mxCell>
        <mxCell id="tPJ5kPAeRhdhdYEuvLA_-26" value="" style="endArrow=none;html=1;rounded=0;entryX=0.5;entryY=0;entryDx=0;entryDy=0;exitX=0.25;exitY=1;exitDx=0;exitDy=0;strokeColor=#000000;fontColor=#000000;strokeWidth=1;fillColor=#f5f5f5;gradientColor=#b3b3b3;labelBackgroundColor=none;labelBorderColor=none;" edge="1" parent="1" source="tPJ5kPAeRhdhdYEuvLA_-3" target="tPJ5kPAeRhdhdYEuvLA_-22">
          <mxGeometry width="50" height="50" relative="1" as="geometry">
            <mxPoint x="400" y="420" as="sourcePoint" />
            <mxPoint x="450" y="370" as="targetPoint" />
          </mxGeometry>
        </mxCell>
        <mxCell id="tPJ5kPAeRhdhdYEuvLA_-27" value="" style="endArrow=none;html=1;rounded=0;entryX=0.5;entryY=0;entryDx=0;entryDy=0;exitX=0.75;exitY=1;exitDx=0;exitDy=0;strokeColor=#000000;fontColor=#000000;strokeWidth=1;fillColor=#f5f5f5;gradientColor=#b3b3b3;labelBackgroundColor=none;labelBorderColor=none;" edge="1" parent="1" source="tPJ5kPAeRhdhdYEuvLA_-3" target="tPJ5kPAeRhdhdYEuvLA_-24">
          <mxGeometry width="50" height="50" relative="1" as="geometry">
            <mxPoint x="400" y="420" as="sourcePoint" />
            <mxPoint x="450" y="370" as="targetPoint" />
          </mxGeometry>
        </mxCell>
        <mxCell id="tPJ5kPAeRhdhdYEuvLA_-28" value="" style="endArrow=none;html=1;rounded=0;entryX=0.5;entryY=0;entryDx=0;entryDy=0;exitX=0.5;exitY=1;exitDx=0;exitDy=0;strokeColor=#000000;fontColor=#000000;strokeWidth=1;fillColor=#f5f5f5;gradientColor=#b3b3b3;labelBackgroundColor=none;labelBorderColor=none;" edge="1" parent="1" source="tPJ5kPAeRhdhdYEuvLA_-3" target="tPJ5kPAeRhdhdYEuvLA_-25">
          <mxGeometry width="50" height="50" relative="1" as="geometry">
            <mxPoint x="400" y="420" as="sourcePoint" />
            <mxPoint x="450" y="370" as="targetPoint" />
          </mxGeometry>
        </mxCell>
        <mxCell id="tPJ5kPAeRhdhdYEuvLA_-30" value="&lt;u&gt;PID&lt;/u&gt;" style="ellipse;html=1;strokeColor=#36393d;strokeWidth=1;fillColor=#eeeeee;labelBackgroundColor=none;labelBorderColor=none;whiteSpace=wrap;fontColor=#000000;" vertex="1" parent="1">
          <mxGeometry x="540" y="280" width="90" height="40" as="geometry" />
        </mxCell>
        <mxCell id="tPJ5kPAeRhdhdYEuvLA_-31" value="PName" style="ellipse;html=1;strokeColor=#36393d;strokeWidth=1;fillColor=#eeeeee;labelBackgroundColor=none;labelBorderColor=none;whiteSpace=wrap;fontColor=#000000;" vertex="1" parent="1">
          <mxGeometry x="680" y="280" width="90" height="40" as="geometry" />
        </mxCell>
        <mxCell id="tPJ5kPAeRhdhdYEuvLA_-32" value="" style="endArrow=none;html=1;rounded=0;entryX=0.5;entryY=1;entryDx=0;entryDy=0;exitX=0.25;exitY=0;exitDx=0;exitDy=0;strokeColor=#000000;fontColor=#000000;strokeWidth=1;fillColor=#f5f5f5;gradientColor=#b3b3b3;labelBackgroundColor=none;labelBorderColor=none;" edge="1" parent="1" source="tPJ5kPAeRhdhdYEuvLA_-4" target="tPJ5kPAeRhdhdYEuvLA_-30">
          <mxGeometry width="50" height="50" relative="1" as="geometry">
            <mxPoint x="400" y="420" as="sourcePoint" />
            <mxPoint x="450" y="370" as="targetPoint" />
          </mxGeometry>
        </mxCell>
        <mxCell id="tPJ5kPAeRhdhdYEuvLA_-33" value="" style="endArrow=none;html=1;rounded=0;entryX=0.5;entryY=1;entryDx=0;entryDy=0;exitX=0.75;exitY=0;exitDx=0;exitDy=0;strokeColor=#000000;fontColor=#000000;strokeWidth=1;fillColor=#f5f5f5;gradientColor=#b3b3b3;labelBackgroundColor=none;labelBorderColor=none;" edge="1" parent="1" source="tPJ5kPAeRhdhdYEuvLA_-4" target="tPJ5kPAeRhdhdYEuvLA_-31">
          <mxGeometry width="50" height="50" relative="1" as="geometry">
            <mxPoint x="400" y="420" as="sourcePoint" />
            <mxPoint x="450" y="370" as="targetPoint" />
          </mxGeometry>
        </mxCell>
        <mxCell id="tPJ5kPAeRhdhdYEuvLA_-34" value="Pdescription" style="ellipse;html=1;strokeColor=#36393d;strokeWidth=1;fillColor=#eeeeee;labelBackgroundColor=none;labelBorderColor=none;whiteSpace=wrap;fontColor=#000000;" vertex="1" parent="1">
          <mxGeometry x="540" y="490" width="90" height="40" as="geometry" />
        </mxCell>
        <mxCell id="tPJ5kPAeRhdhdYEuvLA_-35" value="Pprice" style="ellipse;html=1;strokeColor=#36393d;strokeWidth=1;fillColor=#eeeeee;labelBackgroundColor=none;labelBorderColor=none;whiteSpace=wrap;fontColor=#000000;" vertex="1" parent="1">
          <mxGeometry x="680" y="490" width="90" height="40" as="geometry" />
        </mxCell>
        <mxCell id="tPJ5kPAeRhdhdYEuvLA_-36" value="createdBy" style="ellipse;html=1;strokeColor=#36393d;strokeWidth=1;fillColor=#eeeeee;labelBackgroundColor=none;labelBorderColor=none;whiteSpace=wrap;fontColor=#000000;" vertex="1" parent="1">
          <mxGeometry x="620" y="560" width="90" height="40" as="geometry" />
        </mxCell>
        <mxCell id="tPJ5kPAeRhdhdYEuvLA_-37" value="" style="endArrow=none;html=1;rounded=0;entryX=0.25;entryY=1;entryDx=0;entryDy=0;exitX=0.5;exitY=0;exitDx=0;exitDy=0;strokeColor=#000000;fontColor=#000000;strokeWidth=1;fillColor=#f5f5f5;gradientColor=#b3b3b3;labelBackgroundColor=none;labelBorderColor=none;" edge="1" parent="1" source="tPJ5kPAeRhdhdYEuvLA_-34" target="tPJ5kPAeRhdhdYEuvLA_-4">
          <mxGeometry width="50" height="50" relative="1" as="geometry">
            <mxPoint x="400" y="420" as="sourcePoint" />
            <mxPoint x="450" y="370" as="targetPoint" />
          </mxGeometry>
        </mxCell>
        <mxCell id="tPJ5kPAeRhdhdYEuvLA_-38" value="" style="endArrow=none;html=1;rounded=0;entryX=0.75;entryY=1;entryDx=0;entryDy=0;exitX=0.5;exitY=0;exitDx=0;exitDy=0;strokeColor=#000000;fontColor=#000000;strokeWidth=1;fillColor=#f5f5f5;gradientColor=#b3b3b3;labelBackgroundColor=none;labelBorderColor=none;" edge="1" parent="1" source="tPJ5kPAeRhdhdYEuvLA_-35" target="tPJ5kPAeRhdhdYEuvLA_-4">
          <mxGeometry width="50" height="50" relative="1" as="geometry">
            <mxPoint x="400" y="420" as="sourcePoint" />
            <mxPoint x="450" y="370" as="targetPoint" />
          </mxGeometry>
        </mxCell>
        <mxCell id="tPJ5kPAeRhdhdYEuvLA_-39" value="" style="endArrow=none;html=1;rounded=0;entryX=0.5;entryY=1;entryDx=0;entryDy=0;exitX=0.5;exitY=0;exitDx=0;exitDy=0;strokeColor=#000000;fontColor=#000000;strokeWidth=1;fillColor=#f5f5f5;gradientColor=#b3b3b3;labelBackgroundColor=none;labelBorderColor=none;" edge="1" parent="1" source="tPJ5kPAeRhdhdYEuvLA_-36" target="tPJ5kPAeRhdhdYEuvLA_-4">
          <mxGeometry width="50" height="50" relative="1" as="geometry">
            <mxPoint x="400" y="420" as="sourcePoint" />
            <mxPoint x="450" y="370" as="targetPoint" />
          </mxGeometry>
        </mxCell>
        <mxCell id="tPJ5kPAeRhdhdYEuvLA_-40" value="#userID" style="ellipse;html=1;strokeColor=#36393d;strokeWidth=1;fillColor=#eeeeee;labelBackgroundColor=none;labelBorderColor=none;whiteSpace=wrap;fontColor=#000000;" vertex="1" parent="1">
          <mxGeometry x="630" y="200" width="90" height="40" as="geometry" />
        </mxCell>
        <mxCell id="tPJ5kPAeRhdhdYEuvLA_-41" value="" style="endArrow=none;html=1;rounded=0;entryX=0.5;entryY=1;entryDx=0;entryDy=0;exitX=0.5;exitY=0;exitDx=0;exitDy=0;fontColor=#000000;strokeColor=#000000;" edge="1" parent="1" source="tPJ5kPAeRhdhdYEuvLA_-4" target="tPJ5kPAeRhdhdYEuvLA_-40">
          <mxGeometry width="50" height="50" relative="1" as="geometry">
            <mxPoint x="400" y="420" as="sourcePoint" />
            <mxPoint x="450" y="370" as="targetPoint" />
          </mxGeometry>
        </mxCell>
        <mxCell id="tPJ5kPAeRhdhdYEuvLA_-42" value="&lt;b&gt;&lt;font style=&quot;font-size: 15px;&quot;&gt;CRUD&lt;/font&gt;&lt;/b&gt;" style="shape=rhombus;perimeter=rhombusPerimeter;whiteSpace=wrap;html=1;align=center;strokeColor=#36393d;fillColor=#eeeeee;fontColor=#000000;" vertex="1" parent="1">
          <mxGeometry x="370" y="380" width="120" height="60" as="geometry" />
        </mxCell>
      </root>
    </mxGraphModel>
  </diagram>
</mxfile>
